<svg xmlns="http://www.w3.org/2000/svg" viewBox="0 0 32 32">
  <!-- background creme -->
  <rect width="32" height="32" rx="5" fill="#FAF5EC"/>

  <!-- finder TL -->
  <rect x="2" y="2" width="10" height="10" rx="1.5" fill="#C8462E"/>
  <rect x="4" y="4" width="6" height="6" rx="0.5" fill="#FAF5EC"/>
  <rect x="6" y="6" width="2" height="2" fill="#C8462E"/>

  <!-- finder TR -->
  <rect x="20" y="2" width="10" height="10" rx="1.5" fill="#C8462E"/>
  <rect x="22" y="4" width="6" height="6" rx="0.5" fill="#FAF5EC"/>
  <rect x="24" y="6" width="2" height="2" fill="#C8462E"/>

  <!-- finder BL -->
  <rect x="2" y="20" width="10" height="10" rx="1.5" fill="#C8462E"/>
  <rect x="4" y="22" width="6" height="6" rx="0.5" fill="#FAF5EC"/>
  <rect x="6" y="24" width="2" height="2" fill="#C8462E"/>

  <!-- data dots (área inferior-direita, simula módulos QR) -->
  <rect x="14" y="14" width="2" height="2" fill="#1F1812"/>
  <rect x="18" y="14" width="2" height="2" fill="#1F1812"/>
  <rect x="24" y="14" width="2" height="2" fill="#1F1812"/>
  <rect x="28" y="14" width="2" height="2" fill="#1F1812"/>
  <rect x="14" y="18" width="2" height="2" fill="#1F1812"/>
  <rect x="20" y="18" width="2" height="2" fill="#1F1812"/>
  <rect x="26" y="18" width="2" height="2" fill="#1F1812"/>
  <rect x="14" y="22" width="2" height="2" fill="#1F1812"/>
  <rect x="18" y="22" width="2" height="2" fill="#1F1812"/>
  <rect x="24" y="22" width="2" height="2" fill="#1F1812"/>
  <rect x="16" y="26" width="2" height="2" fill="#1F1812"/>
  <rect x="22" y="26" width="2" height="2" fill="#1F1812"/>
  <rect x="28" y="26" width="2" height="2" fill="#1F1812"/>
</svg>
